<svg xmlns="http://www.w3.org/2000/svg" width="48" height="48" viewBox="0 0 48 48">
  <g id="medium_icon" transform="translate(-252 -328)">
    <circle id="椭圆_3" data-name="椭圆 3" cx="24" cy="24" r="24" transform="translate(252 328)" fill="#eaaa00"/>
    <path id="路径_3" data-name="路径 3" d="M7.9,148.524a7.951,7.951,0,1,0,7.9,7.951A7.924,7.924,0,0,0,7.9,148.524Zm12.611.466c-2.181,0-3.948,3.352-3.948,7.485s1.768,7.486,3.948,7.486,3.948-3.352,3.948-7.486h0c0-4.134-1.767-7.485-3.948-7.485Zm6.1.78c-.767,0-1.388,3-1.388,6.706s.621,6.706,1.388,6.706,1.389-3,1.389-6.706-.622-6.706-1.389-6.706Z" transform="translate(262 195.476)" fill="#003232"/>
  </g>
</svg>
