<svg id="CUBE" xmlns="http://www.w3.org/2000/svg" viewBox="0 0 106.38 28.01"><defs><style>.cls-1{fill:#003232;}</style></defs><title>CUBE</title><path id="icon" class="cls-1" d="M140.5,84.07l-2.36,4.33h-5.57L135,84Zm.32.47-2.32,4.16,2.44,4.14,2.55-4.55ZM133,89.27l.51,1,3.6-.08,2.09,3.22,1.19-.11-2.37-4.11Zm-5.42,8,1.73,2.82h1.79l5.12-8.85h-5ZM137,91.46l-5.27,9.1,2.41,4.22,5.45-9.43Zm-7.84,9.5-.62,1.1h1.78l1.64,3,1.58-.12-2.4-4.06ZM121.79,84l-2.37,4.23h10.5l2.4-4.23Zm11.38.27-2.59,4.47,1,1.53h1.21l-1-1.65,1.88-3.22Zm-11.73,9.09h7.66l1.76-2.69-.91-1.44H119.35ZM113.74,84l-2.28,4.2h4.92l2.35-4.2Zm5.44.62-2.24,4.16,2.28,4.12.92-1-2-3.58,1.64-3.07-.16-.65Zm-5.58,8.75h5.2l-2.33-4.16h-5Zm2.21.77-.45,1h4.94l.83-1.41-.42-1.14-1.07,1.48Zm5.92-.07-.9,1.56,5.43,8.93,2.46-4.45-3.66-6Zm-1.48,1.73h-5l5.12,9.28h5.34Zm7.87,6.9-1.64,2.91h-3.72l-.83,1.56h5.24l2.27-4-.21-.73Zm-.42,4.7,2.45,4.32,2.39-4.46-2.43-4.17Zm-3.42,4.6h5.38l-2.5-4.34h-5.09Z" transform="translate(-111.44 -84.05)"/><polygon id="c" class="cls-1" points="50.85 9.14 37.99 9.14 36.71 11.14 36.71 18.95 50.85 18.95 50.85 16.22 39.12 16.22 39.12 11.91 50.85 11.91 50.85 9.14"/><polygon id="u" class="cls-1" points="52.83 9.14 52.83 16.22 54.15 18.95 67.08 18.95 67.08 9.14 64.64 9.14 64.64 16.22 55.48 16.22 55.48 9.14 52.83 9.14"/><path id="b" class="cls-1" d="M193.81,93.19l1,2.77v4.31l-1,2.73H180.56V93.19Zm-11,2.18v1.88h9.87V95.38Zm0,3.49v1.9h9.87v-1.9Z" transform="translate(-111.44 -84.05)"/><polygon id="e" class="cls-1" points="99.83 9.14 99.83 11.91 88.2 11.91 88.2 13.21 99.83 13.21 99.83 15.52 88.2 15.52 88.2 16.72 99.83 16.72 99.83 18.95 85.51 18.95 85.51 11.91 86.85 9.14 99.83 9.14"/><g id="beta"><path class="cls-1" d="M212.1,90.54h.23v1.07h0a.69.69,0,0,1,.22-.18.63.63,0,0,1,.28-.06.79.79,0,0,1,.3.06.66.66,0,0,1,.23.15.72.72,0,0,1,.15.23.83.83,0,0,1,0,.59.72.72,0,0,1-.15.23.67.67,0,0,1-.22.15.69.69,0,0,1-.28.06.65.65,0,0,1-.33-.08.53.53,0,0,1-.21-.2h0v.25h-.23Zm.23,1.57a.6.6,0,0,0,0,.21.47.47,0,0,0,.26.28.54.54,0,0,0,.41,0,.48.48,0,0,0,.16-.11.48.48,0,0,0,.1-.17.63.63,0,0,0,0-.41.47.47,0,0,0-.26-.28.54.54,0,0,0-.41,0,.47.47,0,0,0-.16.11.48.48,0,0,0-.1.16A.6.6,0,0,0,212.33,92.11Z" transform="translate(-111.44 -84.05)"/><path class="cls-1" d="M215.2,92.55a.72.72,0,0,1-.28.23.88.88,0,0,1-.35.06.72.72,0,0,1-.3-.06.66.66,0,0,1-.22-.16.69.69,0,0,1-.14-.23.84.84,0,0,1,0-.29.81.81,0,0,1,.05-.3.69.69,0,0,1,.15-.23.67.67,0,0,1,.23-.15.76.76,0,0,1,.29-.05.72.72,0,0,1,.27,0,.58.58,0,0,1,.21.14.65.65,0,0,1,.14.23.94.94,0,0,1,0,.31v.08h-1.13a.51.51,0,0,0,.14.32.46.46,0,0,0,.14.1.43.43,0,0,0,.18,0,.56.56,0,0,0,.26-.05.58.58,0,0,0,.19-.16ZM215,92a.4.4,0,0,0-.12-.29.42.42,0,0,0-.31-.11.43.43,0,0,0-.46.4Z" transform="translate(-111.44 -84.05)"/><path class="cls-1" d="M216.38,91.6H216v.7s0,.09,0,.13a.26.26,0,0,0,0,.1.16.16,0,0,0,.06.07.23.23,0,0,0,.12,0h.1l.1,0v.21l-.13,0h-.14a.51.51,0,0,1-.2,0,.27.27,0,0,1-.12-.09.34.34,0,0,1-.06-.15,1.34,1.34,0,0,1,0-.2V91.6h-.31v-.2h.31V91H216v.4h.41Z" transform="translate(-111.44 -84.05)"/><path class="cls-1" d="M216.65,91.59a.66.66,0,0,1,.26-.16.91.91,0,0,1,.3-.05.59.59,0,0,1,.45.15.63.63,0,0,1,.14.45v.6s0,.08,0,.12,0,.08,0,.12h-.23a.5.5,0,0,1,0-.11s0-.07,0-.1h0a.55.55,0,0,1-.18.18.53.53,0,0,1-.28.07l-.2,0a.5.5,0,0,1-.17-.08.39.39,0,0,1-.11-.13.37.37,0,0,1,0-.18.39.39,0,0,1,.09-.27.54.54,0,0,1,.22-.15,1.08,1.08,0,0,1,.29-.06h.37v0a.29.29,0,0,0-.09-.23.38.38,0,0,0-.26-.08.69.69,0,0,0-.22,0,.53.53,0,0,0-.19.12Zm.68.55a.84.84,0,0,0-.36.06.21.21,0,0,0-.13.21.2.2,0,0,0,.09.19.41.41,0,0,0,.22.06.43.43,0,0,0,.18,0,.37.37,0,0,0,.13-.09.4.4,0,0,0,.08-.13.56.56,0,0,0,0-.16v-.09Z" transform="translate(-111.44 -84.05)"/></g></svg>