<svg xmlns="http://www.w3.org/2000/svg" width="48" height="48" viewBox="0 0 48 48">
  <g id="twitter_icon" transform="translate(-252 -328)">
    <circle id="椭圆_1" data-name="椭圆 1" cx="24" cy="24" r="24" transform="translate(252 328)" fill="#eaaa00"/>
    <path id="twitter" d="M137.29,187.184a17.092,17.092,0,0,0,7.58,1.963s-1.316-4.609,2.753-6.654a5.654,5.654,0,0,1,6.869,1.4s.711-.195,1.238-.39,1.292-.544,1.292-.544l-1.255,2.25,1.932-.205a7.55,7.55,0,0,1-1.012,1.06,15.036,15.036,0,0,0-1.091,1.081s.277,5.549-2.633,9.82a15.727,15.727,0,0,1-12.128,7.375,15.317,15.317,0,0,1-9.017-1.682,16.079,16.079,0,0,0,3.908-.721,22.619,22.619,0,0,0,3.71-2.123s-3.111-.961-4.23-2.045a6.363,6.363,0,0,1-1.4-1.723l3.071-.041s-3.231-1.723-4.148-3.088a6.36,6.36,0,0,1-1.036-2.684l2.363.957a13.531,13.531,0,0,1-2.243-4.766,5.418,5.418,0,0,1,.359-3.207S133.181,185.1,137.29,187.184Z" transform="translate(132.073 159.297)" fill="#003232"/>
  </g>
</svg>
